<svg width="500px" height="500px" xmlns="http://www.w3.org/2000/svg" style="background-color:transparent" overflow="visible" >
   <defs>
      <radialGradient id="polygonFrontGradient0" cx="0" cy="0" fx="-83.33333333333333" fy="83.33333333333333" gradientUnits="userSpaceOnUse" r="250" spreadMethod="pad" >
         <stop offset="0%" stop-color="#e6e6e6" stop-opacity="0.2" />
         <stop offset="80%" stop-color="#d8ccff" stop-opacity="0.6" />
      </radialGradient>
   </defs>
   <style type="text/css">
         .boundaryCircleStyle { fill:none; stroke:#000000FF; stroke-width:1.5; vector-effect: non-scaling-stroke;}
         .segmentFrontStyle0 { fill:none; stroke:#4287f5FF; stroke-width:1.5; vector-effect: non-scaling-stroke;}
         .angleMarkerCircleFrontStyle1 { fill:none; stroke:#000000; stroke-opacity:0.5019607843137255; stroke-width:2.3094688221709005; stroke-linecap:butt; stroke-linejoin:miter; stroke-miterlimit:4; stroke-dasharray:0 ; vector-effect: non-scaling-stroke;}
         .angleMarkerFillFrontStyle2 { fill:#d8ccff; fill-opacity:0.6; vector-effect: non-scaling-stroke;}
         .polygonFrontStyle3 { fill:url(#polygonFrontGradient0); vector-effect: non-scaling-stroke;}
   </style>
   <g id="sphereScene" >
      <g id="frame0" transform = "matrix(1,0,0,-1,0,0)">
         <g id="foreFills">
            <path class="polygonFrontStyle3" d="M189.66512759592027 -98.58545062961889 L169.01434644600008 -111.91423434354284 L145.97811873900253 -123.66347507418509 L120.88157480396336 -133.66734556227115 L94.0789240058461 -141.78465247767824 L65.94845548052204 -147.90082920377728 L36.88719901098716 -151.92955281579563 L7.305321400518213 -153.81396243137755 L-22.37966256837326 -153.52746173770024 L-51.74878288341016 -151.07409436838242 L-80.38752759094459 -146.48848683216394 L-107.89169316389018 -139.8353597988543 L-133.8730893778615 -131.20861464019578 L-157.96501817763485 -120.73000811808582 L-179.82744920592233 -108.54743392543737 L-179.82745145757514 -108.54743303057441 L-181.0120557160396 -83.21466600259569 L-179.64187930542488 -56.7074179752914 L-175.73626071781771 -29.39980880815287 L-169.3503233472315 -1.6772545539560326 L-160.57419748517518 26.068972253401185 L-149.53174823341288 53.44726496867635 L-136.37882728798826 80.07120992066588 L-121.30107326860728 105.56504020462486 L-104.51129163924588 129.56893920760626 L-86.24645119944094 151.7441190134533 L-66.76433953739928 171.77760201149124 L-46.3399246494248 189.3866382219174 L-25.26147407729316 204.32269599233143 L-3.826486337568795 216.37496974123135 L-3.826492072710522 216.37496879424947 L18.74925729175426 205.5092799492219 L41.06038207141394 191.74305979066526 L62.79198594587151 175.27060296380762 L83.6373518775965 156.32439958709446 L103.30227107639735 135.17185391682153 L121.50919542411505 112.11151023815503 L138.00115475275217 87.46883924982544 L152.5453836880832 61.59164441291435 L164.93660686994684 34.84515309792912 L174.99993618204599 7.606861813082318 L182.59333910012998 -19.738791732446543 L187.60964332061434 -46.805854532460984 L189.9780493765685 -73.21230557440106 L189.66512989220604 -98.58544763434904 Z"/>


         </g>
         <g id="mid">
            <circle class="boundaryCircleStyle" cx="0" cy="0" r="250"/>
         </g>
         <g id="fore">
            <path class="segmentFrontStyle0" transform="matrix(0.9998959272930867,0.014426870162939033,-0.014426870162939033,0.9998959272930867,0,0)" d="M-181.37473327536216 -105.94178950922186 A250,153.93519940068913 0 0 1 188.2231085655064 -101.31146445370673 "/>
            <path class="segmentFrontStyle0" transform="matrix(-0.45597638413298724,-0.8899918747454981,0.8899918747454981,-0.45597638413298724,0,0)" d="M-190.82717472950532 -102.06741879135878 A250,157.99080372986464 0 0 1 178.60340373213808 -110.54990190144856 "/>
            <path class="segmentFrontStyle0" transform="matrix(0.5145126400316541,-0.857482794723986,0.857482794723986,0.5145126400316541,0,0)" d="M-187.5065884649503 108.04650793159186 A250,163.3583462305736 0 0 0 182.12043270757448 111.91112285301645 "/>
         </g>
         <g id="foreAngleMarkersGlowing">
            <path class="angleMarkerFillFrontStyle2" transform="matrix(-0.46120390037964343,-0.8872941802325788,0.8872941802325788,-0.46120390037964343,176.8632269704716,-91.93119027460585)" d="M 0.758660508083141 -0.3943418013856813 L -56.483319365494985 -36.53001298306163 A90.29080536437618,46.82331582924143 0 0 1 52.69600509643861,-38.02161139880588  L 0.758660508083141 -0.3943418013856813"/>
            <path class="angleMarkerFillFrontStyle2" transform="matrix(-0.5167726973037946,0.856122642686993,-0.856122642686993,-0.5167726973037946,-167.68956618384655,-101.2207657007529)" d="M -0.7193097946953019 -0.4341897343528551 L -54.43069559386017 -39.06606661803111 A90.29080536437618,48.96332213193887 0 0 1 56.10054017205489,-38.365095704077156  L -0.7193097946953019 -0.4341897343528551"/>
            <path class="angleMarkerFillFrontStyle2" transform="matrix(0.9998436654765547,0.017681759143461748,-0.017681759143461748,0.9998436654765547,-3.5682103219098384,201.77022311543138)" d="M -0.015305953092326956 0.865499870192681 L -53.01401406451373 -36.593654181035035 A90.29080536437618,45.20637123596874 0 0 1 55.13289031162079,-35.8001845307656  L -0.015305953092326956 0.865499870192681"/>
         </g>
         <g id="foreAngleMarkers">
            <path class="angleMarkerCircleFrontStyle1" transform="matrix(-0.46120390037964343,-0.8872941802325788,0.8872941802325788,-0.46120390037964343,176.8632269704716,-91.93119027460585)" d="M -56.483319365494985 -36.53001298306163 A90.29080536437618,46.82331582924143 0 0 1 52.69600509643861,-38.02161139880588"/>
            <path class="angleMarkerCircleFrontStyle1" transform="matrix(-0.5167726973037946,0.856122642686993,-0.856122642686993,-0.5167726973037946,-167.68956618384655,-101.2207657007529)" d="M -54.43069559386017 -39.06606661803111 A90.29080536437618,48.96332213193887 0 0 1 56.10054017205489,-38.365095704077156"/>
            <path class="angleMarkerCircleFrontStyle1" transform="matrix(0.9998436654765547,0.017681759143461748,-0.017681759143461748,0.9998436654765547,-3.5682103219098384,201.77022311543138)" d="M -53.01401406451373 -36.593654181035035 A90.29080536437618,45.20637123596874 0 0 1 55.13289031162079,-35.8001845307656"/>
         </g>
      </g>
   </g>
</svg>