<svg width="500px" height="500px" xmlns="http://www.w3.org/2000/svg" style="background-color:transparent" overflow="visible" >
   <defs>
      <radialGradient id="circleFrontGradient0" cx="0" cy="0" fx="-83.33333333333333" fy="83.33333333333333" gradientUnits="userSpaceOnUse" r="250" spreadMethod="pad" >
         <stop offset="0%" stop-color="#e6e6e6" stop-opacity="0.2" />
         <stop offset="80%" stop-color="#d8ccff" stop-opacity="0.2" />
      </radialGradient>
   </defs>
   <style type="text/css">
         .boundaryCircleStyle { fill:none; stroke:#000000FF; stroke-width:1.5; vector-effect: non-scaling-stroke;}
         .circleFrontStyle0 { fill:url(#circleFrontGradient0); stroke:#4287f5FF; stroke-width:1.5; vector-effect: non-scaling-stroke;}
         .lineFrontStyle1 { fill:none; stroke:#4287f5FF; stroke-width:1.5; vector-effect: non-scaling-stroke;}
         .lineBackStyle0 { fill:none; stroke:#4287f5cc; stroke-width:1.0; stroke-dasharray:10 5 ; vector-effect: non-scaling-stroke;}
   </style>
   <g id="sphereScene" >
      <g id="frame0" transform = "matrix(1,0,0,-1,0,0)">
         <g id="back">
            <path class="lineBackStyle0" transform="matrix(-0.9702780426289782,-0.24199280979417298,0.24199280979417298,-0.9702780426289782,0,0)"  d="M 250,0 A250,89.11245932872342 0 0 1 -250,0"/>
            <path class="lineBackStyle0" transform="matrix(0.4709937848821407,0.8821365283233632,-0.8821365283233632,0.4709937848821407,0,0)"  d="M 250,0 A250,52.46596960971796 0 0 1 -250,0"/>
         </g>
         <g id="mid">
            <circle class="boundaryCircleStyle" cx="0" cy="0" r="250"/>
         </g>
         <g id="fore">
            <ellipse class="circleFrontStyle0" cx="0" cy="0" rx="115.23947419364332" ry="91.40318068061312" transform="matrix(-0.5337432877941565,0.8456465589918073,-0.8456465589918073,-0.5337432877941565,-114.25814516278467,-72.11584722718356)"  />
            <path class="lineFrontStyle1" transform="matrix(-0.9702780426289782,-0.24199280979417298,0.24199280979417298,-0.9702780426289782,0,0)"  d="M 250,0 A250,89.11245932872342 0 1 0 -250,0"/>
            <path class="lineFrontStyle1" transform="matrix(0.4709937848821407,0.8821365283233632,-0.8821365283233632,0.4709937848821407,0,0)"  d="M 250,0 A250,52.46596960971796 0 1 0 -250,0"/>
         </g>
      </g>
   </g>
</svg>