<svg width="500px" height="500px" xmlns="http://www.w3.org/2000/svg" style="background-color:transparent" overflow="visible" >
   <style type="text/css">
         .boundaryCircleStyle { fill:none; stroke:#000000FF; stroke-width:1.5; vector-effect: non-scaling-stroke;}
         .pointBackStyle0 { fill:ff80804d; stroke:#4d4dcb4d; stroke-width:1.5; vector-effect: non-scaling-stroke;}
         .segmentFrontStyle0 { fill:none; stroke:#4287f5FF; stroke-width:1.5; vector-effect: non-scaling-stroke;}
         .segmentBackStyle1 { fill:none; stroke:#4287f54d; stroke-width:1.5; stroke-dasharray:0 ; vector-effect: non-scaling-stroke;}
         .segmentFrontStyle1 { fill:none; stroke:#4287f5FF; stroke-width:1.5; vector-effect: non-scaling-stroke;}
         .segmentBackStyle2 { fill:none; stroke:#4287f54d; stroke-width:1.5; stroke-dasharray:0 ; vector-effect: non-scaling-stroke;}
         .polygonFrontStyle2 { fill:#d8ccff; fill-opacity:0.6; vector-effect: non-scaling-stroke;}
         .polygonBackStyle3 { fill:#F7C3C3; fill-opacity:0.6; vector-effect: non-scaling-stroke;}
   </style>
   <g id="sphereScene" >
      <g id="frame0" transform = "matrix(1,0,0,-1,0,0)">
         <g id="backFills">
            <path class="polygonBackStyle3" d="M-47.65391204796656 -88.36461394092039 L-41.6197029746706 -99.40770707450562 L-35.47244504092245 -110.18078559477715 L-29.228835638934115 -120.65458729746074 L-22.90583387407058 -130.80066288420807 L-16.520614499947584 -140.59145323755416 L-10.090521267778918 -150.00036427793407 L-3.633019816686044 -159.00183919943174 L2.8343497670681117 -167.57142788804984 L9.294020593061184 -175.68585333394566 L15.728446682499943 -183.3230748572412 L22.12015062720782 -190.4623479756715 L28.451771062358752 -197.08428075145684 L34.706109824009914 -203.17088646434732 L40.866178663342765 -208.70563246776717 L40.86617951997184 -208.7056420008046 L53.65519651715954 -206.81939594900945 L66.29847343476777 -204.37137998151655 L78.76166817168186 -201.36824348300948 L91.01092777216455 -197.81814367554114 L103.01298037841181 -193.73072346160814 L114.73522560471093 -189.11708523176958 L126.1458230877229 -183.98976070795376 L137.21377897236627 -178.36267690436696 L147.9090300983859 -172.25111829846094 L158.20252565893728 -165.67168531471256 L168.06630610938115 -158.64224923398348 L177.47357911195508 -151.1819036509355 L186.39879231003718 -143.3109126113563 L194.81770273433116 -135.05065557026478 L194.81770097514874 -135.05065415872406 L198.947969256511 -124.59270457354546 L202.53784826052993 -113.79633202361708 L205.5775870350949 -102.69086198525304 L208.05892893779924 -91.30645951593552 L209.97513406291444 -79.67404731895411 L211.3209975485529 -67.82522175010163 L212.09286371429172 -55.79216699457206 L212.2886359908566 -43.607567647176154 L211.90778261489527 -31.304519933327356 L210.95133807337132 -18.91644181194249 L209.42190029365503 -6.476982204439125 L207.32362358694456 5.980070403615613 L204.6622073641836 18.420879739944837 L201.4448806551265 30.811653652801795 L201.44488262072784 30.81165386502417 L193.46894226285121 33.6378680223153 L184.96749494811286 36.37271385219963 L175.9636325984258 39.00876287291291 L166.48181181260122 41.53885495796241 L156.54778743649908 43.95611778470741 L146.188542606835 46.25398550119685 L135.43221545866115 48.426216560561095 L124.30802269560208 50.46691067451479 L112.8461802304451 52.37052483992181 L101.07782111164457 54.13188839488985 L89.03491095867122 55.746217063499095 L76.75016113590338 57.20912595101611 L64.25693990090043 58.5166414542948 L51.58918176840059 59.66521205501319 L51.58918241320801 59.66520811675176 L44.78994210138587 49.203047298649984 L37.869041817185646 38.60723948092224 L30.845280346627284 27.90656535909862 L23.73773587080251 17.1300904701504 L16.56571414506695 6.307086243684457 L9.34869606008736 -4.53304950611451 L2.1062847271802534 -15.360872431832213 L-5.141847768329587 -26.146971630568327 L-12.37601380109984 -36.86204953083649 L-19.576563681971884 -47.47700147162989 L-26.723939031128424 -57.96299475749677 L-33.79872590323357 -68.29154697489378 L-40.78170752025502 -78.43460335709156 L-47.653916468733755 -88.36461298749165 Z"/>
         </g>
         <g id="back">
            <path class="segmentBackStyle1" transform="matrix(0.8247677058997593,0.5654716892160455,-0.5654716892160455,0.8247677058997593,0,0)" d="M250 0 A250,112.84946567819412 0 0 1 249.87119935339555 3.6219927580080635 "/>
            <path class="segmentBackStyle1" transform="matrix(-0.830606190300574,0.5568602667046434,-0.5568602667046434,-0.830606190300574,0,0)" d="M-237.02112767814876 3.6876728714749913 A250,11.595781305592286 0 0 1 -250 0 "/>
            <path class="segmentBackStyle2" transform="matrix(-0.8055422307076308,-0.5925383654638526,0.5925383654638526,-0.8055422307076308,0,0)" d="M-180.52944215709005 94.54373088467511 A250,136.66928544083865 0 0 1 -249.85372506481804 4.674523406479503 "/>
            <path class="segmentBackStyle2" transform="matrix(-0.99072955449757,-0.13584899648155796,0.13584899648155796,-0.99072955449757,0,0)" d="M-88.31435546509876 -233.43131879649283 A250,249.5187511190327 0 0 0 -221.7466605453849 -115.22653181803763 "/>
            <path class="segmentBackStyle2" transform="matrix(0.9986253711994784,-0.05241534123426064,0.05241534123426064,0.9986253711994784,0,0)" d="M201.62862138869315 -124.65357168538452 A250,210.84328517485284 0 0 0 51.74937946131397 -206.27672909253744 "/>
            <path class="segmentBackStyle2" transform="matrix(0.48530821981819305,-0.8743431430376156,0.8743431430376156,0.48530821981819305,0,0)" d="M212.62724169697583 104.79632620165694 A250,199.24750386926044 0 0 1 70.82289753549546 191.08509549365812 "/>
            <path class="segmentBackStyle2" transform="matrix(-0.18906953104327562,-0.9819637021963061,0.9819637021963061,-0.18906953104327562,0,0)" d="M250 0 A250,129.502698467872 0 0 1 197.2148103944399 79.58898039824517 "/>
            <path class="segmentBackStyle2" transform="matrix(-0.9992027169899227,0.03992405740849039,-0.03992405740849039,-0.9992027169899227,0,0)" d="M196.91581155396443 56.45554959249664 A250,91.63285059356518 0 0 1 44.08804583567609 90.19670123767118 "/>
            <path class="segmentBackStyle2" transform="matrix(-0.555270107740391,-0.8316700712722411,0.8316700712722411,-0.555270107740391,0,0)" d="M99.95099954068735 9.433895832827481 A250,10.292263886585479 0 0 1 -78.26769957904116 9.77486962628663 "/>
            <path class="segmentBackStyle2" transform="matrix(-0.4315794643723513,0.9020749225713318,-0.9020749225713318,-0.4315794643723513,0,0)" d="M188.85517711246018 -47.74766015052459 A250,72.87048231500854 0 0 0 31.557659144605196 -72.28758553803387 "/>
            <path class="segmentBackStyle2" transform="matrix(0.39643478555875483,-0.918062884991537,0.918062884991537,0.39643478555875483,0,0)" d="M207.8056733621407 -45.220452875372494 A250,81.34058670698035 0 0 0 62.23260465824986 -78.78009658039447 "/>
            <path class="segmentBackStyle2" transform="matrix(0.9994557233045424,-0.032988742834397414,0.032988742834397414,0.9994557233045424,0,0)" d="M200.3187978676053 37.44029588587199 A250,62.5782184284229 0 0 1 49.5928214266579 61.3345982015801 "/>
            <path class="segmentBackStyle2" transform="matrix(0.8306061903005723,-0.5568602667046461,0.5568602667046461,0.8306061903005723,0,0)" d="M-229.6681996787021 -4.580558023829048 A250,11.59578130559081 0 0 0 -250 0 "/>
            <path class="segmentBackStyle2" transform="matrix(0.8247677058997587,0.5654716892160465,-0.5654716892160465,0.8247677058997587,0,0)" d="M-191.59229413337565 72.49454288742801 A250,112.8494656781942 0 0 1 -250 0 "/>
            <path class="segmentBackStyle2" transform="matrix(0.33669134645615545,-0.9416150684974944,0.9416150684974944,0.33669134645615545,0,0)" d="M-21.291531773910005 -203.7393840043393 A250,204.48231627175966 0 0 0 -181.93089833055444 -140.2483928182712 "/>
            <path class="segmentBackStyle2" transform="matrix(-0.1890695310432728,-0.9819637021963067,0.9819637021963067,-0.1890695310432728,0,0)" d="M-249.42422656771015 8.784143520301667 A250,129.50269846787285 0 0 1 -250 0 "/>
            <path class="segmentBackStyle2" transform="matrix(0.25440057144887485,0.9670989345700294,-0.9670989345700294,0.25440057144887485,0,0)" d="M249.45259487927774 7.937813570541074 A250,120.01605265115987 0 0 1 174.90771997315733 85.75200560814984 "/>
            <path class="segmentBackStyle2" transform="matrix(0.9997390655226914,-0.022842961012437504,0.022842961012437504,0.9997390655226914,0,0)" d="M-42.786304955456934 190.04065112571917 A250,192.88653496616854 0 0 1 -196.09866443910724 119.64019918350638 "/>
         </g>
         <g id="backPoints">
            <circle class="pointBackStyle0" cx="-7.984636543168024" cy="-241.90951233384376" r="20.0" />
         </g>
         <g id="foreFills">
            <path class="polygonFrontStyle2" d="M-51.589181768399115 -59.66521205501318 L-64.25693990089887 -58.51664145429481 L-76.75016113590195 -57.209125951016134 L-89.03491095866971 -55.74621706349915 L-101.0778211116432 -54.13188839488991 L-112.84618023044366 -52.37052483992192 L-124.3080226956008 -50.4669106745149 L-135.4322154586598 -48.42621656056124 L-146.18854260683364 -46.253985501197036 L-156.54778743649786 -43.95611778470757 L-166.48181181259994 -41.53885495796263 L-175.96363259842468 -39.00876287291312 L-184.96749494811178 -36.37271385219988 L-193.46894226285022 -33.63786802231555 L-201.44488262072684 -30.811653865024454 L-201.44488065512724 -30.811653652802775 L-204.6622073641843 -18.42087973994589 L-207.32362358694533 -5.98007040361658 L-209.4219002936558 6.476982204438073 L-210.95133807337209 18.916441811941567 L-211.90778261489606 31.304519933326347 L-212.28863599085733 43.60756764717527 L-212.0928637142925 55.792166994571105 L-211.32099754855366 67.82522175010057 L-209.97513406291517 79.67404731895319 L-208.05892893779998 91.30645951593452 L-205.57758703509563 102.69086198525213 L-202.53784826053067 113.79633202361616 L-198.9479692565117 124.5927045735447 L-194.81770097514945 135.0506541587232 L-194.81770273433196 135.0506555702639 L-186.39879231003803 143.31091261135543 L-177.47357911195593 151.18190365093477 L-168.06630610938208 158.64224923398277 L-158.2025256589382 165.67168531471188 L-147.9090300983869 172.25111829846026 L-137.21377897236718 178.36267690436642 L-126.14582308772378 183.98976070795328 L-114.73522560471196 189.11708523176907 L-103.01298037841275 193.73072346160774 L-91.01092777216563 197.8181436755407 L-78.76166817168287 201.36824348300914 L-66.29847343476868 204.37137998151624 L-53.65519651716055 206.81939594900916 L-40.86617951997275 208.7056420008044 L-40.866178663343874 208.7056324677683 L-34.70610982401093 203.1708864643485 L-28.451771062359775 197.08428075145815 L-22.120150627208766 190.4623479756728 L-15.72844668250081 183.3230748572425 L-9.294020593061973 175.68585333394694 L-2.834349767068872 167.57142788805118 L3.633019816685305 159.0018391994331 L10.090521267778328 150.00036427793535 L16.520614499947037 140.59145323755544 L22.90583387407014 130.80066288420923 L29.22883563893376 120.65458729746183 L35.472445040922096 110.18078559477827 L41.61970297467038 99.40770707450655 L47.65391204796638 88.36461394092129 L47.65391646873394 88.36461298749121 L40.78170752025514 78.43460335709104 L33.79872590323363 68.29154697489315 L26.72393903112843 57.96299475749605 L19.576563681971834 47.477001471629066 L12.37601380109973 36.86204953083557 L5.141847768329411 26.146971630567307 L-2.1062847271804888 15.360872431831098 L-9.348696060087532 4.533049506113483 L-16.565714145067147 -6.307086243685529 L-23.73773587080277 -17.13009047015156 L-30.845280346627632 -27.906565359099922 L-37.869041817186044 -38.60723948092361 L-44.78994210138629 -49.20304729865138 L-51.58918241320846 -59.66520811675321 Z"/>
         </g>
         <g id="mid">
            <circle class="boundaryCircleStyle" cx="0" cy="0" r="250"/>
         </g>
         <g id="fore">
            <path class="segmentFrontStyle0" transform="matrix(-0.9992027169899226,0.039924057408492614,-0.039924057408492614,-0.9992027169899226,0,0)" d="M-196.91581155396398 -56.455549592496965 A250,91.63285059356537 0 0 1 -44.088045835675956 -90.19670123767136 "/>
            <path class="segmentFrontStyle0" transform="matrix(0.8247677058997593,0.5654716892160455,-0.5654716892160455,0.8247677058997593,0,0)" d="M191.5922941333758 -72.4945428874279 A250,112.84946567819412 0 0 1 250 0 "/>
            <path class="segmentFrontStyle1" transform="matrix(0.3366913464561525,-0.9416150684974954,0.9416150684974954,0.3366913464561525,0,0)" d="M21.29153177390931 203.73938400433954 A250,204.48231627175983 0 0 0 181.930898330554 140.24839281827175 "/>
            <path class="segmentFrontStyle0" transform="matrix(0.9997390655226914,-0.02284296101243498,0.02284296101243498,0.9997390655226914,0,0)" d="M42.786304955456245 -190.04065112571908 A250,192.88653496616837 0 0 1 196.09866443910735 -119.64019918350617 "/>
            <path class="segmentFrontStyle0" transform="matrix(-0.830606190300574,0.5568602667046434,-0.5568602667046434,-0.830606190300574,0,0)" d="M-250 0 A250,11.595781305592286 0 0 1 -229.66819967871257 -4.580558023828503 "/>
            <path class="segmentFrontStyle1" transform="matrix(0.2544005714488772,0.9670989345700287,-0.9670989345700287,0.2544005714488772,0,0)" d="M-249.45259487927768 -7.937813570541659 A250,120.01605265116113 0 0 1 -174.90771997315727 -85.75200560815077 "/>
            <path class="segmentFrontStyle1" transform="matrix(-0.18906953104327562,-0.9819637021963061,0.9819637021963061,-0.18906953104327562,0,0)" d="M249.42422656771024 -8.784143520300995 A250,129.502698467872 0 0 1 250 0 "/>
            <path class="segmentFrontStyle1" transform="matrix(0.4315794643723478,-0.9020749225713335,0.9020749225713335,0.4315794643723478,0,0)" d="M31.557659144606017 -72.2875855380325 A250,72.8704823150072 0 0 1 188.85517711245998 -47.74766015052378 "/>
            <path class="segmentFrontStyle1" transform="matrix(-0.9907295544975737,-0.13584899648153156,0.13584899648153156,-0.9907295544975737,0,0)" d="M88.31435546509235 233.4313187964953 A250,249.51875111903271 0 0 0 221.7466605453818 115.22653181804365 "/>
            <path class="segmentFrontStyle1" transform="matrix(-0.4853082198181879,0.8743431430376185,-0.8743431430376185,-0.4853082198181879,0,0)" d="M70.82289753549497 191.08509549365925 A250,199.2475038692615 0 0 0 212.62724169697543 104.79632620165798 "/>
            <path class="segmentFrontStyle1" transform="matrix(0.9986253711994781,-0.052415341234265424,0.052415341234265424,0.9986253711994781,0,0)" d="M-201.62862138869392 124.65357168538358 A250,210.84328517485275 0 0 0 -51.74937946131487 206.27672909253718 "/>
            <path class="segmentFrontStyle1" transform="matrix(0.8306061903005723,-0.5568602667046461,0.5568602667046461,0.8306061903005723,0,0)" d="M-250 0 A250,11.59578130559081 0 0 0 -237.02112767815538 3.687672871473606 "/>
            <path class="segmentFrontStyle1" transform="matrix(0.8247677058997587,0.5654716892160465,-0.5654716892160465,0.8247677058997587,0,0)" d="M-250 0 A250,112.8494656781942 0 0 1 -249.87119935339558 -3.621992758007818 "/>
            <path class="segmentFrontStyle1" transform="matrix(-0.8055422307076315,-0.5925383654638516,0.5925383654638516,-0.8055422307076315,0,0)" d="M180.52944215709024 -94.54373088467491 A250,136.66928544083854 0 0 1 249.85372506481804 -4.674523406479456 "/>
            <path class="segmentFrontStyle1" transform="matrix(0.3964347855587511,-0.9180628849915385,0.9180628849915385,0.3964347855587511,0,0)" d="M-207.8056733621422 45.22045287537193 A250,81.34058670698063 0 0 0 -62.23260465825075 78.78009658039467 "/>
            <path class="segmentFrontStyle1" transform="matrix(-0.1890695310432728,-0.9819637021963067,0.9819637021963067,-0.1890695310432728,0,0)" d="M-250 0 A250,129.50269846787285 0 0 1 -197.21481039444006 -79.58898039824557 "/>
            <path class="segmentFrontStyle1" transform="matrix(-0.9994557233045424,0.03298874283439948,-0.03298874283439948,-0.9994557233045424,0,0)" d="M49.59282142665642 61.334598201580036 A250,62.57821842842276 0 0 0 200.31879786760427 37.44029588587224 "/>
            <path class="segmentFrontStyle1" transform="matrix(0.5552701077403902,0.8316700712722417,-0.8316700712722417,0.5552701077403902,0,0)" d="M-78.26769957904263 9.774869626286204 A250,10.29226388658505 0 0 0 99.95099954068709 9.433895832827094 "/>
         </g>
      </g>
   </g>
</svg>