<svg width="500px" height="500px" xmlns="http://www.w3.org/2000/svg" style="background-color:transparent" overflow="visible" >
   <defs>
      <radialGradient id="circleFrontGradient0" cx="0" cy="0" fx="-83.33333333333333" fy="83.33333333333333" gradientUnits="userSpaceOnUse" r="250" spreadMethod="pad" >
         <stop offset="0%" stop-color="#e6e6e6" stop-opacity="0.2" />
         <stop offset="80%" stop-color="#d8ccff" stop-opacity="0.2" />
      </radialGradient>
   </defs>
   <style type="text/css">
         .boundaryCircleStyle { fill:none; stroke:#000000FF; stroke-width:1.5; vector-effect: non-scaling-stroke;}
         .circleFrontStyle0 { fill:url(#circleFrontGradient0); stroke:#4287f5FF; stroke-width:1.5; vector-effect: non-scaling-stroke;}
         .lineFrontStyle1 { fill:none; stroke:#4287f5FF; stroke-width:1.5; vector-effect: non-scaling-stroke;}
         .lineBackStyle0 { fill:none; stroke:#4287f5cc; stroke-width:1.0; stroke-dasharray:10 5 ; vector-effect: non-scaling-stroke;}
         .pointFrontStyle2 { fill:#df9f9f; stroke:#6a6aaf; stroke-width:1.5; vector-effect: non-scaling-stroke;}
   </style>
   <g id="sphereScene" >
      <g id="frame0" transform = "matrix(1,0,0,-1,0,0)">
         <g id="back">
            <path class="lineBackStyle0" transform="matrix(0.714958982134701,0.6991663992676653,-0.6991663992676653,0.714958982134701,0,0)"  d="M 250,0 A250,87.94652113315897 0 1 0 -250,0"/>
         </g>
         <g id="mid">
            <circle class="boundaryCircleStyle" cx="0" cy="0" r="250"/>
         </g>
         <g id="fore">
            <ellipse class="circleFrontStyle0" cx="0" cy="0" rx="139.3253296893908" ry="109.29582400758935" transform="matrix(0.5222782288090587,0.8527751472176429,-0.8527751472176429,0.5222782288090587,-109.78121536909798,67.23500198915282)"  />
            <path class="lineFrontStyle1" transform="matrix(0.714958982134701,0.6991663992676653,-0.6991663992676653,0.714958982134701,0,0)"  d="M 250,0 A250,87.94652113315897 0 0 1 -250,0"/>
         </g>
         <g id="forePoints">
            <circle class="pointFrontStyle2" cx="6.01203171512349" cy="120.86628135372565" r="24.0" />
            <circle class="pointFrontStyle2" cx="-160.31413276510966" cy="-61.21047529210197" r="24.0" />
         </g>
      </g>
   </g>
</svg>