<svg width="500px" height="500px" xmlns="http://www.w3.org/2000/svg" style="background-color:transparent" overflow="visible" >
   <style type="text/css">
         .boundaryCircleStyle { fill:none; stroke:#000000FF; stroke-width:1.5; vector-effect: non-scaling-stroke;}
         .segmentFrontStyle0 { fill:none; stroke:#4287f5FF; stroke-width:1.5; vector-effect: non-scaling-stroke;}
         .lineFrontStyle1 { fill:none; stroke:#4287f5FF; stroke-width:1.5; vector-effect: non-scaling-stroke;}
         .lineBackStyle0 { fill:none; stroke:#4287f5cc; stroke-width:1.0; stroke-dasharray:10 5 ; vector-effect: non-scaling-stroke;}
   </style>
   <g id="sphereScene" >
      <g id="frame0" transform = "matrix(1,0,0,-1,0,0)">
         <g id="back">
            <path class="lineBackStyle0" transform="matrix(0.8842402719611631,0.4670322702362744,-0.4670322702362744,0.8842402719611631,0,0)"  d="M 250,0 A250,20.769126195913568 0 1 0 -250,0"/>
         </g>
         <g id="mid">
            <circle class="boundaryCircleStyle" cx="0" cy="0" r="250"/>
         </g>
         <g id="fore">
            <path class="segmentFrontStyle0" transform="matrix(-0.5154037165621619,-0.8569474948641316,0.8569474948641316,-0.5154037165621619,0,0)" d="M-21.57528610277711 -126.83979010548053 A250,127.31478930922458 0 0 1 143.95823429095591 -104.08841932544358 "/>
            <path class="segmentFrontStyle0" transform="matrix(-0.999872191144138,0.015987538166348608,-0.015987538166348608,-0.999872191144138,0,0)" d="M-6.139101871858703 95.0352443335254 A250,95.06391124018583 0 0 0 162.2594312125891 72.32046211416362 "/>
            <path class="lineFrontStyle1" transform="matrix(0.8842402719611631,0.4670322702362744,-0.4670322702362744,0.8842402719611631,0,0)"  d="M 250,0 A250,20.769126195913568 0 0 1 -250,0"/>
         </g>
      </g>
   </g>
</svg>