<svg width="500px" height="500px" xmlns="http://www.w3.org/2000/svg" style="background-color:transparent" overflow="visible" >
   <defs>
      <radialGradient id="polygonFrontGradient0" cx="0" cy="0" fx="-83.33333333333333" fy="83.33333333333333" gradientUnits="userSpaceOnUse" r="250" spreadMethod="pad" >
         <stop offset="0%" stop-color="#e6e6e6" stop-opacity="0.2" />
         <stop offset="80%" stop-color="#d8ccff" stop-opacity="0.6" />
      </radialGradient>
   </defs>
   <style type="text/css">
         .boundaryCircleStyle { fill:none; stroke:#000000FF; stroke-width:1.5; vector-effect: non-scaling-stroke;}
         .segmentFrontStyle0 { fill:none; stroke:#4287f5FF; stroke-width:1.5; vector-effect: non-scaling-stroke;}
         .angleMarkerCircleFrontStyle1 { fill:none; stroke:#000000; stroke-opacity:0.5019607843137255; stroke-width:2.3094688221709005; stroke-linecap:butt; stroke-linejoin:miter; stroke-miterlimit:4; stroke-dasharray:0 ; vector-effect: non-scaling-stroke;}
         .angleMarkerFillFrontStyle2 { fill:#d8ccff; fill-opacity:0.6; vector-effect: non-scaling-stroke;}
         .polygonFrontStyle3 { fill:url(#polygonFrontGradient0); vector-effect: non-scaling-stroke;}
   </style>
   <g id="sphereScene" >
      <g id="frame0" transform = "matrix(1,0,0,-1,0,0)">
         <g id="foreFills">
            <path class="polygonFrontStyle3" d="M6.160504138486488 -186.35227193433207 L-8.803241780526804 -181.32749649900873 L-23.72787268098287 -175.49703736586656 L-38.547074672022944 -168.88680073206316 L-53.19500230996468 -161.52615754242154 L-67.60657116617668 -153.44781298693147 L-81.71774701357508 -144.6876611833597 L-95.46583034680695 -135.28462569065277 L-108.78973497193226 -125.28048656176863 L-121.63025942775513 -114.7196947043878 L-133.93035003281355 -103.64917437434512 L-145.63535438924475 -92.11811467935142 L-156.69326421714072 -80.17775101941095 L-167.05494644042506 -67.88113743504438 L-176.67436149747303 -55.28291087483733 L-176.67436762159969 -55.28291228551227 L-176.57484738936606 -39.25273113275539 L-175.69076067530693 -23.048140217666962 L-174.02603569917244 -6.741140615551444 L-171.58806925295778 9.595811570720137 L-168.38769383509526 25.890127151406915 L-164.43912951893748 42.06940638193695 L-159.75992076939318 58.06176065318999 L-154.37085848845462 73.79613191067996 L-148.2958876359877 89.20260838337207 L-141.56200083625015 104.21273521927412 L-134.19911844286852 118.75981864757202 L-126.23995559517846 132.77922231583523 L-117.71987685662693 146.20865448559778 L-108.67673908111846 158.98844481022667 L-108.67673739455658 158.98844463301245 L-93.44228771507123 164.08408510084348 L-77.79265043661425 168.4506586869842 L-61.79736083582901 172.06876360614766 L-45.52749000960938 174.92232370768576 L-29.055329088331888 176.998659905972 L-12.45406802817218 178.28854651676954 L4.202529590290028 178.786252249268 L20.840454312220213 178.48956567165072 L37.38577965116281 177.39980503704302 L53.7649905630234 175.52181242618153 L69.905310091909 172.86393223283113 L85.7350227364585 169.43797408754372 L101.18379309986196 165.25916038449742 L116.18297840772746 160.34605864456915 L116.18297703571582 160.3460572283297 L125.70806075622187 147.67837475223035 L134.674591928487 134.35452009399916 L143.04272999809444 120.4336944928169 L150.77529322176798 105.97775167999042 L157.83792387521328 91.05092304726028 L164.1992409131337 75.71953225056203 L169.83097940311083 60.05170051733412 L174.70811611381274 44.117043966760484 L178.8089806995075 27.98636428783463 L182.11535198686252 11.731334149639046 L184.6125389362033 -4.575821258361515 L186.2894459174994 -20.86264514101036 L187.13862201104106 -37.05677104123519 L187.15629411375042 -53.0862443824262 L187.15629731961064 -53.08624154993879 L178.01786984064168 -65.797721197252 L168.08846416796104 -78.21684501135869 L157.41219914969722 -90.28843169989302 L146.0365121179969 -101.9588441653961 L134.01194811302196 -113.17622782843634 L121.39193529861495 -123.89074103055637 L108.23254756752362 -134.05477649330294 L94.59225539098315 -143.62317284934636 L80.53166601969883 -152.55341530579997 L66.1132541905802 -160.8058245481434 L51.40108453576179 -168.34373304540307 L36.46052692732237 -175.13364797321867 L21.35796602249144 -181.1454000308912 L6.160506299913095 -186.35227749117712 Z"/>
         </g>
         <g id="mid">
            <circle class="boundaryCircleStyle" cx="0" cy="0" r="250"/>
         </g>
         <g id="fore">
            <path class="segmentFrontStyle0" transform="matrix(0.8093363115334874,-0.5873454986916727,0.5873454986916727,0.8093363115334874,0,0)" d="M-110.51881052512678 -148.51135937008277 A250,165.5685693342104 0 0 1 114.4390880955032 -147.20331957718176 "/>
            <path class="segmentFrontStyle0" transform="matrix(0.8284193277307961,0.5601083979392345,-0.5601083979392345,0.8284193277307961,0,0)" d="M-99.2739950102585 -157.82837543792755 A250,171.968092862489 0 0 1 125.30983940549193 -148.8054829090525 "/>
            <path class="segmentFrontStyle0" transform="matrix(-0.2961858182792917,0.9551303372054656,-0.9551303372054656,-0.2961858182792917,0,0)" d="M-106.13732277192408 -163.03526094202724 A250,180.0689108465369 0 0 1 118.73963292688063 -158.4621141292049 "/>
            <path class="segmentFrontStyle0" transform="matrix(-0.9993178723436006,-0.03692952767988218,0.03692952767988218,-0.9993178723436006,0,0)" d="M-122.02522967467286 -155.94609762591324 A250,178.6759681690763 0 0 1 102.7312364033553 -162.89337292688865 "/>
            <path class="segmentFrontStyle0" transform="matrix(-0.268552097363055,-0.9632651613143207,0.9632651613143207,-0.268552097363055,0,0)" d="M-123.96266265091613 -147.3811933217928 A250,169.71426426597742 0 0 1 100.69837239546248 -155.33791919149516 "/>
         </g>
         <g id="foreAngleMarkersGlowing">
            <path class="angleMarkerFillFrontStyle2" transform="matrix(-0.9994540195804317,-0.033040319982076995,0.033040319982076995,-0.9994540195804317,5.744684513842157,-173.7739837778691)" d="M 0.024642009233363647 -0.7454090999174203 L -75.84644391929109 -32.63290986069785 A90.29080536437618,60.14737062307966 0 0 1 72.11083353956323,-36.1963623051084  L 0.024642009233363647 -0.7454090999174203"/>
            <path class="angleMarkerFillFrontStyle2" transform="matrix(-0.2986301443211578,0.9543689207548224,-0.9543689207548224,-0.2986301443211578,-164.74930731495985,-51.5514580895667)" d="M -0.7066974595842956 -0.22113163972286376 L -72.91380027089016 -35.79059008403721 A90.29080536437618,60.681836519904095 0 0 1 75.34785209009299,-33.43599560123575  L -0.7066974595842956 -0.22113163972286376"/>
            <path class="angleMarkerFillFrontStyle2" transform="matrix(0.8255608608373189,0.5643130913363121,-0.5643130913363121,0.8255608608373189,-101.34134045416563,148.2571387199808)" d="M -0.434706943640806 0.635953771255299 L -70.76255497857102 -35.75990343640269 A90.29080536437618,57.57358876576908 0 0 1 75.85966640843517,-31.223448560306565  L -0.434706943640806 0.635953771255299"/>
            <path class="angleMarkerFillFrontStyle2" transform="matrix(0.8097733995039023,-0.5867427387329932,0.5867427387329932,0.8097733995039023,108.34093005213415,149.5231171044025)" d="M 0.46473190864755026 0.6413842263069194 L -72.35756507941917 -32.968949712064735 A90.29080536437618,55.118120111433676 0 0 1 73.13242975255405,-32.325545108614385  L 0.46473190864755026 0.6413842263069194"/>
            <path class="angleMarkerFillFrontStyle2" transform="matrix(-0.2728815347511876,-0.9620476433066277,0.9620476433066277,-0.2728815347511876,174.52373320248282,-49.503062034549636)" d="M 0.7486251742204608 -0.21234497887496362 L -75.39097638501828 -31.205776029831583 A90.29080536437618,56.708804778879454 0 0 1 70.82057515756712,-35.17674252063036  L 0.7486251742204608 -0.21234497887496362"/>
         </g>
         <g id="foreAngleMarkers">
            <path class="angleMarkerCircleFrontStyle1" transform="matrix(-0.9994540195804317,-0.033040319982076995,0.033040319982076995,-0.9994540195804317,5.744684513842157,-173.7739837778691)" d="M -75.84644391929109 -32.63290986069785 A90.29080536437618,60.14737062307966 0 0 1 72.11083353956323,-36.1963623051084"/>
            <path class="angleMarkerCircleFrontStyle1" transform="matrix(-0.2986301443211578,0.9543689207548224,-0.9543689207548224,-0.2986301443211578,-164.74930731495985,-51.5514580895667)" d="M -72.91380027089016 -35.79059008403721 A90.29080536437618,60.681836519904095 0 0 1 75.34785209009299,-33.43599560123575"/>
            <path class="angleMarkerCircleFrontStyle1" transform="matrix(0.8255608608373189,0.5643130913363121,-0.5643130913363121,0.8255608608373189,-101.34134045416563,148.2571387199808)" d="M -70.76255497857102 -35.75990343640269 A90.29080536437618,57.57358876576908 0 0 1 75.85966640843517,-31.223448560306565"/>
            <path class="angleMarkerCircleFrontStyle1" transform="matrix(0.8097733995039023,-0.5867427387329932,0.5867427387329932,0.8097733995039023,108.34093005213415,149.5231171044025)" d="M -72.35756507941917 -32.968949712064735 A90.29080536437618,55.118120111433676 0 0 1 73.13242975255405,-32.325545108614385"/>
            <path class="angleMarkerCircleFrontStyle1" transform="matrix(-0.2728815347511876,-0.9620476433066277,0.9620476433066277,-0.2728815347511876,174.52373320248282,-49.503062034549636)" d="M -75.39097638501828 -31.205776029831583 A90.29080536437618,56.708804778879454 0 0 1 70.82057515756712,-35.17674252063036"/>
         </g>
      </g>
   </g>
</svg>