<svg width="500px" height="500px" xmlns="http://www.w3.org/2000/svg" style="background-color:transparent" overflow="visible" >
   <style type="text/css">
         .boundaryCircleStyle { fill:none; stroke:#000000FF; stroke-width:1.5; vector-effect: non-scaling-stroke;}
         .segmentFrontStyle0 { fill:none; stroke:#4287f5FF; stroke-width:1.5; vector-effect: non-scaling-stroke;}
         .angleMarkerCircleFrontStyle1 { fill:none; stroke:#000000; stroke-opacity:0.5019607843137255; stroke-width:2.3094688221709005; stroke-linecap:butt; stroke-linejoin:miter; stroke-miterlimit:4; stroke-dasharray:0 ; vector-effect: non-scaling-stroke;}
         .angleMarkerFillFrontStyle2 { fill:#d8ccff; fill-opacity:0.6; vector-effect: non-scaling-stroke;}
   </style>
   <g id="sphereScene" >
      <g id="frame0" transform = "matrix(1,0,0,-1,0,0)">
         <g id="mid">
            <circle class="boundaryCircleStyle" cx="0" cy="0" r="250"/>
         </g>
         <g id="fore">
            <path class="segmentFrontStyle0" transform="matrix(-0.48138254907034544,-0.8765106054409932,0.8765106054409932,-0.48138254907034544,0,0)" d="M-186.34167776537396 -100.46869916829311 A250,150.7057578188009 0 0 1 168.88944028766417 -111.11642030815155 "/>
            <path class="segmentFrontStyle0" transform="matrix(0.9999701124028215,-0.007731384163815814,0.007731384163815814,0.9999701124028215,0,0)" d="M-177.95885429090563 -95.9226150719763 A250,136.57452703219784 0 0 1 177.71103379278787 -96.05963465459972 "/>
            <path class="segmentFrontStyle0" transform="matrix(-0.4667172292791537,0.8844065964781074,-0.8844065964781074,-0.4667172292791537,0,0)" d="M-168.76007155296847 -111.03469363723019 A250,150.49820097967537 0 0 1 186.458566301229 -100.25160067487002 "/>
         </g>
         <g id="foreAngleMarkersGlowing">
            <path class="angleMarkerFillFrontStyle2" transform="matrix(-0.4676580726442601,0.8839094563871663,-0.8839094563871663,-0.4676580726442601,-166.63369481692828,-88.1624152706689)" d="M -0.7147806004618937 -0.378175519630485 L -50.74584966013482 -43.93339434100684 A90.29080536437618,53.116168397846984 0 0 1 56.71452483901891,-41.33006093773552  L -0.7147806004618937 -0.378175519630485"/>
            <path class="angleMarkerFillFrontStyle2" transform="matrix(0.9999700022926038,-0.007745612624575555,0.007745612624575555,0.9999700022926038,1.52907256666844,197.4055213070768)" d="M 0.00655900601948397 0.8467773412177321 L -52.3692224193653 -39.122818117672566 A90.29080536437618,48.026316263035675 0 0 1 52.286850195557456,-39.15397713024616  L 0.00655900601948397 0.8467773412177321"/>
            <path class="angleMarkerFillFrontStyle2" transform="matrix(-0.482302707922929,-0.8760046220940902,0.8760046220940902,-0.482302707922929,165.01850552952675,-90.85439741633813)" d="M 0.7078521939953811 -0.3897228637413395 L -56.69480554157727 -41.39847361661107 A90.29080536437618,53.19204159228566 0 0 1 50.80811037245371,-43.97120480590246  L 0.7078521939953811 -0.3897228637413395"/>
         </g>
         <g id="foreAngleMarkers">
            <path class="angleMarkerCircleFrontStyle1" transform="matrix(-0.4676580726442601,0.8839094563871663,-0.8839094563871663,-0.4676580726442601,-166.63369481692828,-88.1624152706689)" d="M -50.74584966013482 -43.93339434100684 A90.29080536437618,53.116168397846984 0 0 1 56.71452483901891,-41.33006093773552"/>
            <path class="angleMarkerCircleFrontStyle1" transform="matrix(0.9999700022926038,-0.007745612624575555,0.007745612624575555,0.9999700022926038,1.52907256666844,197.4055213070768)" d="M -52.3692224193653 -39.122818117672566 A90.29080536437618,48.026316263035675 0 0 1 52.286850195557456,-39.15397713024616"/>
            <path class="angleMarkerCircleFrontStyle1" transform="matrix(-0.482302707922929,-0.8760046220940902,0.8760046220940902,-0.482302707922929,165.01850552952675,-90.85439741633813)" d="M -56.69480554157727 -41.39847361661107 A90.29080536437618,53.19204159228566 0 0 1 50.80811037245371,-43.97120480590246"/>
         </g>
      </g>
   </g>
</svg>