<svg width="500px" height="500px" xmlns="http://www.w3.org/2000/svg" style="background-color:transparent" overflow="visible" >
   <style type="text/css">
         .boundaryCircleStyle { fill:none; stroke:#000000FF; stroke-width:1.5; vector-effect: non-scaling-stroke;}
         .segmentFrontStyle0 { fill:none; stroke:#4287f5FF; stroke-width:1.5; vector-effect: non-scaling-stroke;}
         .angleMarkerCircleFrontStyle1 { fill:none; stroke:#000000; stroke-opacity:0.5019607843137255; stroke-width:2.3094688221709005; stroke-linecap:butt; stroke-linejoin:miter; stroke-miterlimit:4; stroke-dasharray:0 ; vector-effect: non-scaling-stroke;}
         .angleMarkerFillFrontStyle2 { fill:#d8ccff; fill-opacity:0.6; vector-effect: non-scaling-stroke;}
   </style>
   <g id="sphereScene" >
      <g id="frame0" transform = "matrix(1,0,0,-1,0,0)">
         <g id="mid">
            <circle class="boundaryCircleStyle" cx="0" cy="0" r="250"/>
         </g>
         <g id="fore">
            <path class="segmentFrontStyle0" transform="matrix(0.8936753694959839,0.44871408932216134,-0.44871408932216134,0.8936753694959839,0,0)" d="M-145.69059014069964 78.48118267271424 A250,96.57527250830263 0 0 0 18.155345890288903 96.32027336437342 "/>
            <path class="segmentFrontStyle0" transform="matrix(0.7653354347505499,-0.6436316278083193,0.6436316278083193,0.7653354347505499,0,0)" d="M-129.6642973357109 -102.82127253486803 A250,120.26128900586333 0 0 1 37.243233225347076 -118.91932623932736 "/>
         </g>
         <g id="foreAngleMarkersGlowing">
            <path class="angleMarkerFillFrontStyle2" transform="matrix(0.02878388021226371,0.9995856582804328,-0.9995856582804328,0.02878388021226371,-154.25057694684963,4.44177054035431)" d="M -0.6616628175519631 0.019053117782909933 L -58.59584013894338 -51.49073218624521 A90.29080536437618,67.67832192115559 0 0 1 46.29888424240423,-58.10339085409242  L -0.6616628175519631 0.019053117782909933"/>
         </g>
         <g id="foreAngleMarkers">
            <path class="angleMarkerCircleFrontStyle1" transform="matrix(0.02878388021226371,0.9995856582804328,-0.9995856582804328,0.02878388021226371,-154.25057694684963,4.44177054035431)" d="M -58.59584013894338 -51.49073218624521 A90.29080536437618,67.67832192115559 0 0 1 46.29888424240423,-58.10339085409242"/>
         </g>
      </g>
   </g>
</svg>