<svg width="500px" height="500px" xmlns="http://www.w3.org/2000/svg" style="background-color:transparent" overflow="visible" >
   <defs>
      <radialGradient id="ellipseFrontGradient0" cx="0" cy="0" fx="-83.33333333333333" fy="83.33333333333333" gradientUnits="userSpaceOnUse" r="250" spreadMethod="pad" >
         <stop offset="0%" stop-color="#e6e6e6" stop-opacity="0.2" />
         <stop offset="80%" stop-color="#d8ccff" stop-opacity="0.2" />
      </radialGradient>
   </defs>
   <style type="text/css">
         .boundaryCircleStyle { fill:none; stroke:#000000FF; stroke-width:1.5; vector-effect: non-scaling-stroke;}
         .pointFrontStyle0 { fill:#ff8080; stroke:#4d4dcb; stroke-width:1.5; vector-effect: non-scaling-stroke;}
         .ellipseFrontStyle2 { fill:url(#ellipseFrontGradient0); stroke:#4287f5FF; stroke-width:1.5; vector-effect: non-scaling-stroke;}
   </style>
   <g id="sphereScene" >
      <g id="frame0" transform = "matrix(1,0,0,-1,0,0)">
         <g id="foreFills">
            <path class="ellipseFrontStyle2" d="M150.50481326876553 81.97915214590279 L147.94270069620836 83.93660675928832 L145.3115926106736 85.775158014542 L142.61402117343505 87.49302165877424 L139.85254166820252 89.08855243474149 L137.02973069419784 90.56024536970378 L134.1481846110649 91.90673679803164 L131.21051822446566 93.12680512249351 L128.21936369788278 94.21937132086207 L125.17736967319752 95.1834992060068 L122.08720058010127 96.01839544896282 L118.9515361123672 96.72340937556453 L115.77307084747838 97.29803254809529 L112.55451398509473 97.74189814402557 L109.29858917932923 98.05478014429679 L106.00803443977873 98.23659234376451 L102.68560207668003 98.28738719635922 L99.33405866639765 98.2073545072742 L95.95618501464051 97.99681998407368 L92.55477609630051 97.6562436580544 L89.13264095254374 97.18621818651812 L85.69260252770648 96.58746704585097 L82.23749743059696 95.86084262447999 L78.77017560692411 95.00732422391948 L75.29349991171532 94.02801597524765 L71.81034557270414 92.92414467749187 L68.32359953772459 91.69705756356528 L64.83615970111052 90.34821999860395 L61.350934005939635 88.87921311481352 L57.87083942066327 87.29173138625839 L54.39880079020976 85.58758014641765 L50.93774956303422 83.76867305080034 L47.490622396804724 81.83702948645117 L44.06035964646714 79.7947719297959 L40.649903739318226 77.64412325396361 L37.262197442448844 75.3874039864836 L33.90018202850076 73.02702951807967 L30.5667953461249 70.56550726317278 L27.26496980184264 68.00543377264694 L23.997630260209846 65.34949179942907 L20.767691869274678 62.60044731747492 L17.578057818316196 59.76114649483546 L14.431617034762986 56.83451262159568 L11.331241827030311 53.82354299362685 L8.279785479786483 50.73130575326638 L5.280079807879943 47.56093668823703 L2.3349326748279537 44.315635990330854 L-0.5528745185999782 40.99866497561238 L-3.3805893705732046 37.61334276813516 L-6.145491034464456 34.163042949415306 L-8.844892790938431 30.651190176159453 L-11.476144632083589 27.08125676900341 L-14.036635854288235 23.45675927527703 L-16.523797657051546 19.781255009070435 L-18.935105745415413 16.05833857213313 L-21.268082934197295 12.291638359390411 L-23.520301752696767 8.484813053107473 L-25.68938704903151 4.641548109969868 L-27.773018593731422 0.7655522455765151 L-29.768933682672923 -3.1394460789423597 L-31.674929739869185 -7.0697021632717565 L-33.48886692103501 -11.02145856212811 L-35.20867071921421 -14.990948562090445 L-36.83233457408369 -18.97439963565506 L-38.357922486823924 -22.968036867013517 L-39.78357164266194 -26.968086343977596 L-41.107495043340094 -30.970778510437604 L-42.32798415183062 -34.972351473739806 L-43.44341155159472 -38.969054261422535 L-44.45223362255878 -42.957150021847355 L-45.35299323574483 -46.93291916342547 L-46.14432246812936 -50.89266242735504 L-46.824945338809485 -54.832703889080264 L-47.393680566914014 -58.74939388403735 L-47.84944435090361 -62.639111853694466 L-48.19125316795123 -66.49826910840298 L-48.418226590978776 -70.32331150417687 L-48.529590119648304 -74.11072203118886 L-48.524678020168636 -77.85702331252746 L-48.40293616719113 -81.55878001258793 L-48.163924879344606 -85.21260115536255 L-47.80732173811775 -88.81514235385403 L-47.332924377866576 -92.36310795283185 L-46.74065323273162 -95.85325308818747 L-46.03055422424073 -99.2823856671829 L-45.20280137138366 -102.64736827492949 L-44.25769930303457 -105.94512001343296 L-43.1956856508138 -109.17261828049065 L-42.01733329888373 -112.32690049658869 L-40.723352465822344 -115.40506578869703 L-39.314592592672 -118.40427664047031 L-37.79204401057255 -121.32176051880859 L-36.15683936111397 -124.15481148698395 L-34.41025474271805 -126.90079181458643 L-32.55371055702547 -129.55713359435893 L-30.58877203043187 -132.12134037557732 L-28.51714938760449 -134.59098882297317 L-26.340697655996266 -136.96373040931093 L-24.061416083047803 -139.23729314861447 L-21.681447150873566 -141.40948337572397 L-19.203075176723416 -143.4781875763652 L-16.628724491315154 -145.44137427027584 L-13.960957191173293 -147.2970959481815 L-11.202470465288826 -149.04349106160163 L-8.35609350064098 -150.678786062631 L-5.424783975298993 -152.2012974890299 L-2.411624151848457 -153.609434088218 L0.6801834123192378 -154.90169897213386 L3.8473205178446506 -156.07669179344586 L7.086358316267514 -157.1331109322977 L10.393762617188187 -158.06975568168536 L13.765899481828207 -158.88552841869557 L17.199041073452065 -159.57943674821485 L20.689371733981062 -160.15059560533186 L24.232994255517177 -160.59822930251542 L27.825936315364288 -160.92167350773468 L31.464157043472973 -161.12037713998822 L35.143553691976436 -161.19390416920044 L38.85996837760134 -161.14193530810792 L42.60919486915433 -160.96426958456192 L46.386985393958696 -160.66082578359539 L50.18905743897329 -160.23164374961206 L54.01110052432333 -159.67688554012446 L57.84878292904229 -158.99683642357175 L61.69775835092807 -158.19190571486521 L65.55367248449814 -157.2626274434147 L69.4121695030606 -156.20966084946667 L73.26889843285745 -155.03379070562056 L77.11951940906616 -153.73592746136762 L80.9597098051408 -152.31710720941166 L84.78517022852193 -150.778491473373 L88.59163037713625 -149.12136681724385 L92.37485475234138 -147.34714427765198 L96.1306482250424 -145.45735862060175 L99.85486145262718 -143.45366742489458 L103.54339614512956 -141.33784999489484 L107.19221017965995 -139.11180610569636 L110.79732256263104 -136.77755458407225 L114.35481823968189 -134.33723172885516 L117.86085275345897 -131.79308957460609 L121.31165674957715 -129.14749400258933 L124.70354033115498 -126.4029227031846 L128.03289726231424 -123.56196299394217 L131.29620902095814 -120.62730949752668 L134.49004870101666 -117.60176168380065 L137.61108476416274 -114.48822128028073 L140.6560846407873 -111.28968955515464 L143.6219181797606 -108.00926447698609 L146.5055609462291 -104.6501377551518 L149.30409736639106 -101.21559176496194 L152.01472371787486 -97.70899636130557 L154.63475096401015 -94.13380558455009 L157.16160742994407 -90.49355426229377 L159.5928413182122 -86.7918545104441 L161.9261230610307 -83.03239213695691 L164.15924750623998 -79.21892295143417 L166.29013593349984 -75.3552689836418 L168.31683789702004 -71.44531461386956 L170.2375328908087 -67.49300261792294 L172.05053183214412 -63.50233012940677 L173.75427835872102 -59.477344521842646 L175.34734993470394 -55.422139213048766 L176.82845876073884 -51.340849394117676 L178.1964524828396 -47.237647685244525 L179.4503146949845 -43.11673972060335 L180.58916523024035 -38.98235966443363 L181.61226023528548 -34.83876566049342 L182.51899202334016 -30.690235217066103 L183.30888870074074 -26.541060529778427 L183.9816135627293 -22.395543744596104 L184.53696425447654 -18.257992163529927 L184.97487169393344 -14.132713395798262 L185.29539875381528 -10.024010457473892 L185.49873870088197 -5.936176822979242 L185.58521339168885 -1.873491432206933 L185.55527122515355 2.159786342480153 L185.40948485362216 6.159421764559305 L185.14854865561475 10.121209831536522 L184.77327597508892 14.040980396883018 L184.28459613387093 17.914603308826837 L183.68355122584705 21.737993558285314 L182.97129270357266 25.50711642734642 L182.14907777010845 29.21799262879771 L181.2182655911058 32.86670342626128 L180.18031334439377 36.44939572355393 L179.03677212652673 39.96228711095931 L177.78928273788102 43.40167085521442 L176.43957136988968 46.763920819184406 L174.98944521981414 50.04549629646908 L173.44078806001778 53.24294674556589 L171.79555578996144 56.352916407747784 L170.05577200003762 59.372148792517606 L168.22352357684144 62.29749101440012 L166.30095637950302 65.12589796494598 L164.29027101624183 67.85443630417261 L162.19371874933074 70.48028825625116 L160.01359755516603 73.00075519508367 L157.7522483641426 75.4132610064835 L155.4120515025481 77.715355214975 L152.9954233557668 79.9047158647364 Z "/>
         </g>
         <g id="mid">
            <circle class="boundaryCircleStyle" cx="0" cy="0" r="250"/>
         </g>
         <g id="forePoints">
            <circle class="pointFrontStyle0" cx="13.27944572748268" cy="-113.59699769053118" r="24.0" />
            <circle class="pointFrontStyle0" cx="132.7944572748268" cy="45.17898383371825" r="24.0" />
            <circle class="pointFrontStyle0" cx="-5.196304849884527" cy="35.36374133949192" r="24.0" />
         </g>
      </g>
   </g>
</svg>