<svg width="500px" height="500px" xmlns="http://www.w3.org/2000/svg" style="background-color:transparent" overflow="visible" >
   <style type="text/css">
         .boundaryCircleStyle { fill:none; stroke:#000000FF; stroke-width:1.5; vector-effect: non-scaling-stroke;}
         .segmentFrontStyle0 { fill:none; stroke:#4287f5FF; stroke-width:1.5; vector-effect: non-scaling-stroke;}
         .lineFrontStyle1 { fill:none; stroke:#4287f5FF; stroke-width:1.5; vector-effect: non-scaling-stroke;}
         .lineBackStyle0 { fill:none; stroke:#4287f5cc; stroke-width:1.0; stroke-dasharray:10 5 ; vector-effect: non-scaling-stroke;}
   </style>
   <g id="sphereScene" >
      <g id="frame0" transform = "matrix(1,0,0,-1,0,0)">
         <g id="back">
            <path class="lineBackStyle0" transform="matrix(0.9889352354315679,-0.14834790231718561,0.14834790231718561,0.9889352354315679,0,0)"  d="M 250,0 A250,60.15674311992248 0 0 1 -250,0"/>
            <path class="lineBackStyle0" transform="matrix(0.9865854074504805,0.1632459304416784,-0.1632459304416784,0.9865854074504805,0,0)"  d="M 250,0 A250,40.369361819328276 0 1 0 -250,0"/>
         </g>
         <g id="mid">
            <circle class="boundaryCircleStyle" cx="0" cy="0" r="250"/>
         </g>
         <g id="fore">
            <path class="segmentFrontStyle0" transform="matrix(-0.8668534131275958,-0.49856309545436456,0.49856309545436456,-0.8668534131275958,0,0)" d="M66.82214611159466 -125.85115324651225 A250,130.6029417485304 0 0 1 176.62798504129216 -92.42784844183106 "/>
            <path class="segmentFrontStyle0" transform="matrix(-0.8620476281945489,0.5068272750396852,-0.5068272750396852,-0.8620476281945489,0,0)" d="M61.140337586233905 140.9317724324642 A250,145.34535558515475 0 0 0 167.68912049383582 107.79940229582364 "/>
            <path class="lineFrontStyle1" transform="matrix(0.9889352354315679,-0.14834790231718561,0.14834790231718561,0.9889352354315679,0,0)"  d="M 250,0 A250,60.15674311992248 0 1 0 -250,0"/>
            <path class="lineFrontStyle1" transform="matrix(0.9865854074504805,0.1632459304416784,-0.1632459304416784,0.9865854074504805,0,0)"  d="M 250,0 A250,40.369361819328276 0 0 1 -250,0"/>
         </g>
      </g>
   </g>
</svg>