<svg width="500px" height="500px" xmlns="http://www.w3.org/2000/svg" style="background-color:transparent" overflow="visible" >
   <defs>
      <radialGradient id="polygonFrontGradient0" cx="0" cy="0" fx="-83.33333333333333" fy="83.33333333333333" gradientUnits="userSpaceOnUse" r="250" spreadMethod="pad" >
         <stop offset="0%" stop-color="#e6e6e6" stop-opacity="0.2" />
         <stop offset="80%" stop-color="#d8ccff" stop-opacity="0.6" />
      </radialGradient>
   </defs>
   <style type="text/css">
         .boundaryCircleStyle { fill:none; stroke:#000000FF; stroke-width:1.5; vector-effect: non-scaling-stroke;}
         .segmentFrontStyle0 { fill:none; stroke:#4287f5FF; stroke-width:1.5; vector-effect: non-scaling-stroke;}
         .angleMarkerCircleFrontStyle1 { fill:none; stroke:#000000; stroke-opacity:0.5019607843137255; stroke-width:2.3094688221709005; stroke-linecap:butt; stroke-linejoin:miter; stroke-miterlimit:4; stroke-dasharray:0 ; vector-effect: non-scaling-stroke;}
         .angleMarkerFillFrontStyle2 { fill:#d8ccff; fill-opacity:0.6; vector-effect: non-scaling-stroke;}
         .polygonFrontStyle3 { fill:url(#polygonFrontGradient0); vector-effect: non-scaling-stroke;}
   </style>
   <g id="sphereScene" >
      <g id="frame0" transform = "matrix(1,0,0,-1,0,0)">
         <g id="foreFills">
            <path class="polygonFrontStyle3" d="M-127.61227625619698 -19.98741927607677 L-136.1881197853174 -10.250662423139353 L-144.35006623653322 -0.4827521977182272 L-152.0733101731331 9.286625187425074 L-159.33437944422496 19.027779060600267 L-166.11120652028794 28.711104525801204 L-172.3831955598589 38.30717243663267 L-178.13128500352857 47.78681883610687 L-183.3380055050131 57.12123359048735 L-187.98753302324042 66.2820479478093 L-192.06573691409508 75.2414207549698 L-195.56022287566444 83.97212307136377 L-198.4603706164683 92.44762092190953 L-200.75736613219183 100.64215593796487 L-202.4442284928287 108.53082364105333 L-202.44423779802736 108.53082600628215 L-196.17468298935293 110.34993032854442 L-189.44951638587585 111.9127491350246 L-182.28435705311423 113.21565281016507 L-174.69584593093785 114.25561538612521 L-166.70160718531764 115.03022157053115 L-158.3202072765502 115.53767235594447 L-149.57111183902455 115.77678919802085 L-140.47464047267283 115.74701675265618 L-131.05191955110456 115.44842416576194 L-121.32483315602505 114.8817049126753 L-111.31597225189049 114.04817518757645 L-101.04858221884388 112.94977084665379 L-90.54650886578128 111.58904291211644 L-79.83414304893711 109.9691516474962 L-79.83413924835573 109.96914977816897 L-71.80058331868742 121.69230694210485 L-63.52011848092167 132.99698680067408 L-55.02121972003945 143.84431465354345 L-46.333113174827936 154.1969885492229 L-37.48567563460234 164.01940755956753 L-28.50933179846062 173.27779420477665 L-19.434949650377817 181.94031060789095 L-10.293734309926435 189.9771679793547 L-1.1171207236497906 197.36072905514558 L8.06333443389731 204.06560313620744 L17.216061277708235 210.06873340236191 L26.30958527531191 215.3494762004426 L35.31263548186024 219.8896720339948 L44.19425207511625 223.67370801042057 L44.19424818831601 223.67370651030194 L49.69711385309581 216.71843887835124 L55.02778992822242 209.01228943118994 L60.16780679132173 200.58195828494615 L65.09935541233445 191.45665468635815 L69.80534905789588 181.66799580914633 L74.26948249311576 171.24989720744748 L78.47628847563796 160.2384553058648 L82.41119134623963 148.6718223332807 L86.06055753029074 136.5900741337594 L89.41174277509717 124.03507131254494 L92.45313595946061 111.05031419825332 L95.17419932366452 97.68079212378353 L97.56550498049825 83.97282754815544 L99.61876758081648 69.97391555935809 L99.61877056399595 69.97391794157397 L110.67658545195724 61.07735635425113 L121.36507620226143 51.976981630899616 L131.64857567164512 42.70316142365948 L141.4927681594739 33.286842166564874 L150.8648039181098 23.75944580830854 L159.73340877144318 14.152764958228303 L168.0689884757928 4.498856795412337 L175.84372747492685 -5.170063905056665 L183.03168171966234 -14.821732271750022 L189.60886524230705 -24.423941003711448 L195.55333019704676 -33.94464784516397 L200.84524009918826 -43.35208250946816 L205.46693601885755 -52.614852695526416 L209.40299550827075 -61.70204884286289 L209.40298881272867 -61.702047026285726 L201.74370549644348 -65.43902198318085 L193.49276556704726 -68.98408299650782 L184.67436667254887 -72.32683341578755 L175.31437065587482 -75.45746990967598 L165.44022770947777 -78.36681121633252 L155.08089587176912 -81.04632506943618 L144.26675610147137 -83.48815322088346 L133.029523178951 -85.68513448678353 L121.40215269583553 -87.6308257491632 L109.41874440568319 -89.3195208517901 L97.11444221915579 -90.74626733469759 L84.52533113697459 -91.90688095833399 L71.68833142292962 -92.79795797474094 L58.64109032730172 -93.41688510977312 L58.64108990719046 -93.41688734113276 L51.00919407413273 -105.06947100591725 L43.20997891485419 -116.37740791800971 L35.269027257101634 -127.3036060115694 L27.21238684981619 -137.8122253927035 L19.066484921833933 -147.86879590076228 L10.858041495825148 -157.44033017666177 L2.6139817418163886 -166.49543186735207 L-5.63865234220745 -175.00439861149914 L-13.872790632917614 -182.93931946856947 L-22.06142367651234 -190.27416647173231 L-30.17769128458056 -196.98488000427 L-38.19497064034875 -203.04944771944582 L-46.0869636263053 -208.4479767449582 L-53.827783086753655 -213.16275893513784 L-53.82778171542532 -213.1627637260112 L-61.70172596682853 -203.9510797208419 L-69.2945905490686 -193.8103049793094 L-76.57178648053541 -182.78663538272414 L-83.50016279514502 -170.9302888035137 L-90.04815756019889 -158.29527633977537 L-96.18594165546722 -144.93915626994533 L-101.88555465851684 -130.92277184843346 L-107.12103221726282 -116.30997413668598 L-111.8685243295039 -101.16733113230798 L-116.10640399062467 -85.56382452129318 L-119.81536571452361 -69.57053543479756 L-122.97851347895877 -53.26032064197702 L-125.58143769468118 -36.70748065397747 L-127.61228084772422 -19.987421251020773 Z"/>




         </g>
         <g id="mid">
            <circle class="boundaryCircleStyle" cx="0" cy="0" r="250"/>
         </g>
         <g id="fore">
            <path class="segmentFrontStyle0" transform="matrix(-0.7733138382972577,0.6340234281932826,-0.6340234281932826,-0.7733138382972577,0,0)" d="M86.01184720219818 96.36572310290946 A250,102.63111832362956 0 0 0 225.36401090773464 44.42599910878499 "/>
            <path class="segmentFrontStyle0" transform="matrix(-0.9454527845968231,0.3257591627231891,-0.3257591627231891,-0.9454527845968231,0,0)" d="M111.30286875012857 -77.96393485280683 A250,87.0691519434848 0 0 1 226.7563733815205 -36.662705029713074 "/>
            <path class="segmentFrontStyle0" transform="matrix(0.43977822489728985,0.8981064040002102,-0.8981064040002102,0.43977822489728985,0,0)" d="M63.654679795175795 120.06159031894707 A250,124.15350057112383 0 0 0 220.31845860130056 58.675688969996195 "/>
            <path class="segmentFrontStyle0" transform="matrix(0.013583296355181025,-0.9999077427743658,0.9999077427743658,0.013583296355181025,0,0)" d="M-223.05276983719958 47.22839764918983 A250,104.5758393772018 0 0 0 -68.6143094794951 100.56005452896109 "/>
            <path class="segmentFrontStyle0" transform="matrix(0.8365476546431074,-0.547894169991903,0.547894169991903,0.8365476546431074,0,0)" d="M44.99754645019799 113.11705815515994 A250,114.99511162715208 0 0 0 208.98177342168546 63.11397452111681 "/>
            <path class="segmentFrontStyle0" transform="matrix(-0.9980958811749351,0.06168153679692126,-0.06168153679692126,-0.9980958811749351,0,0)" d="M-212.81014006674937 48.66826159927441 A250,92.74107768965185 0 0 0 -64.29152839175345 89.62193676180009 "/>
            <path class="segmentFrontStyle0" transform="matrix(-0.46075193744604276,-0.8875289584795067,0.8875289584795067,-0.46075193744604276,0,0)" d="M55.8911954879668 95.08767763916414 A250,97.5569341146574 0 0 0 213.98937528785476 50.44144049103009 "/>
            <path class="segmentFrontStyle0" transform="matrix(-0.08446367790078692,0.9964265588167911,-0.9964265588167911,-0.08446367790078692,0,0)" d="M-207.85454194604372 71.63994030774202 A250,128.93062010527348 0 0 0 -9.137394781275814 128.84447394006483 "/>
         </g>
         <g id="foreAngleMarkersGlowing">
            <path class="angleMarkerFillFrontStyle2" transform="matrix(-0.1547396419278871,0.9879552840164525,-0.9879552840164525,-0.1547396419278871,-125.44042247743823,-19.647251623099194)" d="M -0.5104491112840019 -0.07994968393850828 L -45.92653355266898 0.1851989192559318 A45.927042939101405,39.32196475900858 0 1 1 37.733944654051406,22.415699797147294  L -0.5104491112840019 -0.07994968393850828"/>
            <path class="angleMarkerFillFrontStyle2" transform="matrix(0.4724871195716632,0.8813375754152735,-0.8813375754152735,0.4724871195716632,-198.99879927059104,106.68371812160424)" d="M -0.8097769301799558 0.43412329158442065 L -17.145808456928446 -16.81733928995277 A45.927042939101405,18.127997332348627 0 0 1 14.479126883983117,-17.203544303048353  L -0.8097769301799558 0.43412329158442065"/>
            <path class="angleMarkerFillFrontStyle2" transform="matrix(0.8092378210022999,0.5874811903877857,-0.5874811903877857,0.8092378210022999,-78.47543005132994,108.09756474932917)" d="M -0.31933656421267254 0.4398765945497698 L -30.82235667517135 28.578796628821284 A45.927042939101405,38.549528789151296 0 1 1 42.941109022865604,13.672998319026329  L -0.31933656421267254 0.4398765945497698"/>
            <path class="angleMarkerFillFrontStyle2" transform="matrix(0.9810339120214178,-0.1938361768709679,0.1938361768709679,0.9810339120214178,43.44209908099328,219.8669675383599)" d="M 0.17677699445083567 0.8946948357165345 L -21.22821822953413 -16.70639945447711 A45.927042939101405,18.839665168213255 0 0 1 17.74987941545372,-17.375782221355518  L 0.17677699445083567 0.8946948357165345"/>
            <path class="angleMarkerFillFrontStyle2" transform="matrix(0.5747889961903191,-0.8183016618940263,0.8183016618940263,0.5747889961903191,97.92333964990972,68.783018197346)" d="M 0.3984750745498182 0.279895665343295 L -40.48178360883021 18.945903577133876 A45.927042939101405,40.11395369995984 0 1 1 44.0768958938606,11.270958903147124  L 0.3984750745498182 0.279895665343295"/>
            <path class="angleMarkerFillFrontStyle2" transform="matrix(-0.2826424202239206,-0.9592253448955385,0.9592253448955385,-0.2826424202239206,205.83912551890901,-60.65193014658676)" d="M 0.8376119644168227 -0.24680819172586088 L -21.139264649876484 -19.869887724010567 A45.927042939101405,22.381691082239627 0 0 1 16.930189370797404,-20.805467476021352  L 0.8376119644168227 -0.24680819172586088"/>
            <path class="angleMarkerFillFrontStyle2" transform="matrix(-0.8469554080197415,-0.5316639322223329,0.5316639322223329,-0.8469554080197415,57.64306806243768,-91.82700813700383)" d="M 0.2345643635682647 -0.3736675448763976 L -39.56238101331811 20.93325529102295 A45.927042939101405,41.215577398485294 0 1 1 41.468870798331956,17.714009980088203  L 0.2345643635682647 -0.3736675448763976"/>
            <path class="angleMarkerFillFrontStyle2" transform="matrix(-0.9695649658921301,0.2448341824880516,-0.2448341824880516,-0.9695649658921301,-52.91167584937207,-209.53490508906154)" d="M -0.21531112045414993 -0.8526510352348858 L -17.63133621081988 -20.18844290527404 A45.927042939101405,21.86374876604269 0 0 1 23.56298088170968,-18.76690774562691  L -0.21531112045414993 -0.8526510352348858"/>
         </g>
         <g id="foreAngleMarkers">
            <path class="angleMarkerCircleFrontStyle1" transform="matrix(-0.1547396419278871,0.9879552840164525,-0.9879552840164525,-0.1547396419278871,-125.44042247743823,-19.647251623099194)" d="M -45.92653355266898 0.1851989192559318 A45.927042939101405,39.32196475900858 0 1 1 37.733944654051406,22.415699797147294"/>
            <path class="angleMarkerCircleFrontStyle1" transform="matrix(0.4724871195716632,0.8813375754152735,-0.8813375754152735,0.4724871195716632,-198.99879927059104,106.68371812160424)" d="M -17.145808456928446 -16.81733928995277 A45.927042939101405,18.127997332348627 0 0 1 14.479126883983117,-17.203544303048353"/>
            <path class="angleMarkerCircleFrontStyle1" transform="matrix(0.8092378210022999,0.5874811903877857,-0.5874811903877857,0.8092378210022999,-78.47543005132994,108.09756474932917)" d="M -30.82235667517135 28.578796628821284 A45.927042939101405,38.549528789151296 0 1 1 42.941109022865604,13.672998319026329"/>
            <path class="angleMarkerCircleFrontStyle1" transform="matrix(0.9810339120214178,-0.1938361768709679,0.1938361768709679,0.9810339120214178,43.44209908099328,219.8669675383599)" d="M -21.22821822953413 -16.70639945447711 A45.927042939101405,18.839665168213255 0 0 1 17.74987941545372,-17.375782221355518"/>
            <path class="angleMarkerCircleFrontStyle1" transform="matrix(0.5747889961903191,-0.8183016618940263,0.8183016618940263,0.5747889961903191,97.92333964990972,68.783018197346)" d="M -40.48178360883021 18.945903577133876 A45.927042939101405,40.11395369995984 0 1 1 44.0768958938606,11.270958903147124"/>
            <path class="angleMarkerCircleFrontStyle1" transform="matrix(-0.2826424202239206,-0.9592253448955385,0.9592253448955385,-0.2826424202239206,205.83912551890901,-60.65193014658676)" d="M -21.139264649876484 -19.869887724010567 A45.927042939101405,22.381691082239627 0 0 1 16.930189370797404,-20.805467476021352"/>
            <path class="angleMarkerCircleFrontStyle1" transform="matrix(-0.8469554080197415,-0.5316639322223329,0.5316639322223329,-0.8469554080197415,57.64306806243768,-91.82700813700383)" d="M -39.56238101331811 20.93325529102295 A45.927042939101405,41.215577398485294 0 1 1 41.468870798331956,17.714009980088203"/>
            <path class="angleMarkerCircleFrontStyle1" transform="matrix(-0.9695649658921301,0.2448341824880516,-0.2448341824880516,-0.9695649658921301,-52.91167584937207,-209.53490508906154)" d="M -17.63133621081988 -20.18844290527404 A45.927042939101405,21.86374876604269 0 0 1 23.56298088170968,-18.76690774562691"/>
         </g>
      </g>
   </g>
</svg>