<svg width="120px" height="120px" xmlns="http://www.w3.org/2000/svg" style="background-color:transparent" overflow="visible" >
   <style type="text/css">
         .boundaryCircleStyle { fill:none; stroke:#ffffff; stroke-width:12; }
         .segmentFrontStyle1 { fill:none; stroke:#ffffff; stroke-width:10; }
         .segmentFrontStyle2 { fill:none; stroke:#ffffff; stroke-width:10; }
         .segmentBackStyle0 { fill:none; stroke:#9ec1fa; stroke-width:8; }
         .polygonFrontStyle3 { fill:#9696ff; fill-opacity:1; }
         .polygonBackStyle1 { fill:#9696ff; fill-opacity:0.8; }
         .polygonFrontStyle4 { fill:#ff9696; fill-opacity:1; }
         .polygonBackStyle2 { fill:#ff9696; fill-opacity:0.8; }
         .segmentBackStyle1 { fill:none; stroke:#9edbfa; stroke-width:8; }
   </style>
   <g id="sphereScene" >
      <g id="frame14" transform = "matrix(0.176,0,0,-0.176,60,60)">
         <g id="backFills">
            <path class="polygonBackStyle2" d="M-102.26944907335093 -126.65289118976041 L-97.34270538961312 -137.58781705709944 L-92.15155612075321 -148.1490221907784 L-86.7101016439323 -158.30781988426094 L-81.0331222238771 -168.0366164638605 L-75.13603786621898 -177.3089862396205 L-69.0348664331476 -186.09974328367704 L-62.74618013514588 -194.38500984113716 L-56.28706051698517 -202.1422811876535 L-49.67505206024907 -209.3504867575261 L-42.92811452841289 -215.99004737629343 L-36.06457418391958 -222.0429284423556 L-29.10307400975944 -227.49268891317578 L-22.06252307076175 -232.3245259630026 L-14.962045152146544 -236.52531519081123 L-14.962043648120726 -236.52531556690528 L-1.9604990148650288 -236.70931030621952 L11.046370792856301 -236.25034712233986 L24.023236070486995 -235.14967266676112 L36.93484861280156 -233.4102766290784 L49.74613745628553 -231.03688361628974 L62.422304140085835 -228.03594031965736 L74.9289172267802 -224.41559800398426 L87.23200582622482 -220.1856903668698 L99.29815186844812 -215.35770682808445 L111.0945808749547 -209.9447613216146 L122.5892509818851 -203.9615566751465 L133.75093997322168 -197.42434467374338 L144.54933008763965 -190.3508819161908 L154.9550903686473 -182.76038158391566 L154.9550941216216 -182.7603834347803 L159.21211759128815 -174.96586991091277 L163.03668366271646 -166.6961081080392 L166.41840391875797 -157.97356063596234 L169.34809281521154 -148.82191997640317 L171.81779263091263 -139.26604412867175 L173.82079508276766 -129.3318890895196 L175.351659547022 -119.04643835057362 L176.4062278372682 -108.43762960485344 L176.98163549905422 -97.53427886145425 L177.0763195904123 -86.36600217451763 L176.69002292717573 -74.9631351990924 L175.823794781551 -63.356650792390944 L174.47998803204894 -51.57807488425553 L172.6622527725155 -39.65940084534942 L172.6622545548203 -39.659402721168924 L163.44006557619454 -37.684831204363974 L153.77393510243442 -35.60789886036668 L143.690118607677 -33.43424712383285 L133.21600609911275 -31.169780141939697 L122.38004771931138 -28.820648737339425 L111.21167646897193 -26.393233701084412 L99.74122825999955 -23.894128460904305 L87.99985951606419 -21.330121171912175 L76.01946254445747 -18.70817627838549 L63.83257890911678 -16.035415596704407 L51.47231104011653 -13.319098970830535 L38.97223231971574 -10.56660455287057 L26.366295889189 -7.785408762287223 L13.688742424142955 -4.983065978192958 L13.688742522980716 -4.983065518692827 L4.880463799835093 -14.583924594812766 L-3.9410714059765724 -24.145170316234626 L-12.751901738865973 -33.64083210037238 L-21.52809492018669 -43.04511750597314 L-30.245812753907835 -52.332482291428114 L-38.88137587673742 -61.4776997989153 L-47.411328076818315 -70.45592947590976 L-55.812500006293504 -79.24278434794233 L-64.06207211468062 -87.81439725933319 L-72.13763663211549 -96.14748570197655 L-80.01725843410287 -104.21941505608518 L-87.67953462245171 -112.00826007111874 L-95.1036526605591 -119.49286441989918 L-102.26944690513393 -126.65289816414987 Z"/>
         </g>
         <g id="back">
            <path class="segmentBackStyle0" transform="matrix(0.9485263083723284,0.3166983459469951,-0.3166983459469951,0.9485263083723284,0,0)" d="M250 0 A250,80.76691551397109 0 0 1 237.62110037521487 25.100117506583747 "/>
            <path class="segmentBackStyle0" transform="matrix(-0.7238937464236797,0.6899114754000614,-0.6899114754000614,-0.7238937464236797,0,0)" d="M-238.25950979472012 25.393803339403465 A250,83.84927076559626 0 0 1 -250 0 "/>
            <path class="segmentBackStyle1" transform="matrix(-0.7829172614516894,-0.622125840743645,0.622125840743645,-0.7829172614516894,0,0)" d="M-110.50711901175103 138.46768007044597 A250,154.3673611130477 0 0 1 -231.86731304253033 57.71786885193797 "/>
            <path class="segmentBackStyle1" transform="matrix(-0.8296473551858516,0.5582877985708816,-0.5582877985708816,-0.8296473551858516,0,0)" d="M51.06202042675556 -230.1774484793275 A250,235.13427662701875 0 0 0 -125.09381035983932 -203.5812905255019 "/>
            <path class="segmentBackStyle1" transform="matrix(0.9852386901332312,0.1711862245174969,-0.1711862245174969,0.9852386901332312,0,0)" d="M121.38169233549262 -206.58877999889643 A250,236.31163156773783 0 0 0 -55.23106163392861 -230.47260051076964 "/>
            <path class="segmentBackStyle1" transform="matrix(0.45478355178654195,-0.8906019992254777,0.8906019992254777,0.45478355178654195,0,0)" d="M233.23779207455863 54.8868982895332 A250,152.46236080214146 0 0 1 113.84469582376443 135.73690363774762 "/>
            <path class="segmentBackStyle1" transform="matrix(-0.2131154902539414,-0.9770270148843492,0.9770270148843492,-0.2131154902539414,0,0)" d="M250 0 A250,102.54566184801614 0 0 1 234.2802707463453 35.78888786239024 "/>
            <path class="segmentBackStyle1" transform="matrix(-0.9924311475071402,0.12280235118946577,-0.12280235118946577,-0.9924311475071402,0,0)" d="M220.56654417707531 69.30675775567234 A250,147.2259751865236 0 0 1 85.94211501974343 138.25320604057504 "/>
            <path class="segmentBackStyle1" transform="matrix(-0.675888559390112,-0.7370038366830657,0.7370038366830657,-0.675888559390112,0,0)" d="M162.46642052699747 10.230264694000425 A250,13.460005466802066 0 0 1 -5.57952558304408 13.456652850440742 "/>
            <path class="segmentBackStyle1" transform="matrix(-0.3016767014405503,0.9534102830408057,-0.9534102830408057,-0.3016767014405503,0,0)" d="M159.9423632050055 -8.880794247560688 A250,11.555005155895952 0 0 0 -8.880480935970063 -11.547712761191656 "/>
            <path class="segmentBackStyle1" transform="matrix(0.15053967344999503,-0.9886039685928683,0.9886039685928683,0.15053967344999503,0,0)" d="M231.57748869066288 -50.397980982708866 A250,133.76596971972162 0 0 0 109.8139440718425 -120.17027004193123 "/>
            <path class="segmentBackStyle1" transform="matrix(0.9762908721012492,-0.21646277521038623,0.21646277521038623,0.9762908721012492,0,0)" d="M177.1533657714065 -1.3441622796460289 A250,1.9050003109060965 0 0 0 14.44284243051052 -1.9018186550201148 "/>
            <path class="segmentBackStyle1" transform="matrix(0.7238937464236789,-0.6899114754000621,0.6899114754000621,0.7238937464236789,0,0)" d="M-228.06325613558636 -34.34693957329304 A250,83.84927076559615 0 0 0 -250 0 "/>
            <path class="segmentBackStyle1" transform="matrix(0.9485263083723283,0.31669834594699525,-0.31669834594699525,0.9485263083723283,0,0)" d="M-228.90768909453024 32.46993923959365 A250,80.76691551397104 0 0 1 -250 0 "/>
            <path class="segmentBackStyle1" transform="matrix(-0.23296944952102044,-0.9724840541571222,0.9724840541571222,-0.23296944952102044,0,0)" d="M93.52793692711238 -211.4368749650332 A250,227.99289070049468 0 0 0 -84.85233035123501 -214.45895432735497 "/>
            <path class="segmentBackStyle1" transform="matrix(-0.21311549025394116,-0.9770270148843492,0.9770270148843492,-0.21311549025394116,0,0)" d="M-232.789604824838 37.38967242450321 A250,102.54566184801634 0 0 1 -250 0 "/>
            <path class="segmentBackStyle1" transform="matrix(0.5616881826068103,0.8273490107082129,-0.8273490107082129,0.5616881826068103,0,0)" d="M229.9659381397606 52.00629783031733 A250,132.58861477900248 0 0 1 106.03348409672424 120.07217956037547 "/>
            <path class="segmentBackStyle1" transform="matrix(0.9516494707145863,-0.3071860753495312,0.3071860753495312,0.9516494707145863,0,0)" d="M-85.52628286378406 135.44623654267173 A250,144.14361993489868 0 0 1 -220.35780799609387 68.08081603781152 "/>
         </g>
         <g id="foreFills">
            <path class="polygonFrontStyle3" d="M-13.68874242414198 4.9830659781927285 L-26.366295889187327 7.785408762286839 L-38.97223231971343 10.56660455287005 L-51.47231104011355 13.319098970829867 L-63.832578909113195 16.035415596703604 L-76.01946254445329 18.708176278384563 L-87.99985951605944 21.330121171911124 L-99.74122825999426 23.894128460903143 L-111.21167646896637 26.39323370108319 L-122.38004771930541 28.820648737338114 L-133.21600609910635 31.169780141938297 L-143.69011860767029 33.43424712383138 L-153.77393510242743 35.60789886036517 L-163.44006557618732 37.68483120436242 L-172.66225455481293 39.65940272116733 L-172.66225277251584 39.6594008453494 L-174.47998803204925 51.57807488425544 L-175.82379478155133 63.356650792390965 L-176.690022927176 74.96313519909233 L-177.07631959041257 86.36600217451772 L-176.98163549905448 97.53427886145425 L-176.4062278372685 108.43762960485356 L-175.35165954702222 119.04643835057365 L-173.8207950827679 129.3318890895196 L-171.8177926309128 139.2660441286718 L-169.34809281521171 148.82191997640317 L-166.4184039187581 157.97356063596246 L-163.03668366271657 166.69610810803925 L-159.2121175912882 174.9658699109129 L-154.95509412162167 182.76038343478035 L-154.95509036864757 182.76038158391555 L-144.54933008764 190.35088191619056 L-133.75093997322188 197.42434467374332 L-122.58925098188541 203.96155667514637 L-111.09458087495494 209.94476132161455 L-99.29815186844841 215.3577068280844 L-87.23200582622502 220.1856903668698 L-74.92891722678044 224.41559800398423 L-62.4223041400862 228.03594031965733 L-49.74613745628579 231.0368836162897 L-36.93484861280192 233.4102766290784 L-24.023236070487197 235.14967266676118 L-11.046370792856568 236.25034712233992 L1.9604990148648795 236.70931030621958 L14.96204364812047 236.52531556690536 L14.962045152146075 236.52531519081145 L22.062523070761294 232.32452596300288 L29.103074009759005 227.49268891317612 L36.06457418391917 222.0429284423559 L42.92811452841247 215.99004737629377 L49.67505206024869 209.35048675752648 L56.287060516984795 202.14228118765388 L62.74618013514555 194.38500984113756 L69.03486643314727 186.09974328367747 L75.13603786621869 177.30898623962096 L81.03312222387683 168.03661646386095 L86.71010164393212 158.30781988426128 L92.15155612075294 148.14902219077882 L97.34270538961289 137.58781705709993 L102.26944907335074 126.6528911897608 L102.26944690513531 126.6528981641514 L95.1036526605605 119.4928644199007 L87.67953462245293 112.00826007112012 L80.01725843410404 104.2194150560865 L72.13763663211662 96.14748570197787 L64.06207211468157 87.81439725933436 L55.8125000062944 79.24278434794343 L47.411328076819025 70.45592947591068 L38.88137587673802 61.477699798916106 L30.245812753908403 52.33248229142889 L21.52809492018701 43.045117505973664 L12.751901738866211 33.64083210037282 L3.941071405976743 24.145170316234992 L-4.88046379983515 14.583924594812888 L-13.68874252298085 4.983065518692865 Z"/>
         </g>
         <g id="mid">
            <circle class="boundaryCircleStyle" cx="0" cy="0" r="250"/>
         </g>
         <g id="fore">
            <path class="segmentFrontStyle1" transform="matrix(-0.99243114750714,0.12280235118946753,-0.12280235118946753,-0.99243114750714,0,0)" d="M-220.56654417707506 -69.30675775567262 A250,147.22597518652356 0 0 1 -85.94211501974326 -138.25320604057504 "/>
            <path class="segmentFrontStyle1" transform="matrix(0.9485263083723284,0.3166983459469951,-0.3166983459469951,0.9485263083723284,0,0)" d="M228.90768909453033 -32.469939239593614 A250,80.76691551397109 0 0 1 250 0 "/>
            <path class="segmentFrontStyle2" transform="matrix(-0.2329694495210226,-0.9724840541571217,0.9724840541571217,-0.2329694495210226,0,0)" d="M-93.52793692711303 211.4368749650331 A250,227.99289070049483 0 0 0 84.85233035123446 214.45895432735531 "/>
            <path class="segmentFrontStyle1" transform="matrix(0.9516494707145862,-0.3071860753495313,0.3071860753495313,0.9516494707145862,0,0)" d="M85.52628286378393 -135.4462365426716 A250,144.14361993489857 0 0 1 220.3578079960938 -68.08081603781153 "/>
            <path class="segmentFrontStyle1" transform="matrix(-0.7238937464236797,0.6899114754000614,-0.6899114754000614,-0.7238937464236797,0,0)" d="M-250 0 A250,83.84927076559626 0 0 1 -228.06325613558676 -34.3469395732928 "/>
            <path class="segmentFrontStyle2" transform="matrix(0.5616881826068109,0.8273490107082125,-0.8273490107082125,0.5616881826068109,0,0)" d="M-229.96593813976057 -52.006297830317465 A250,132.5886147790027 0 0 1 -106.03348409672427 -120.07217956037567 "/>
            <path class="segmentFrontStyle2" transform="matrix(-0.2131154902539414,-0.9770270148843492,0.9770270148843492,-0.2131154902539414,0,0)" d="M232.78960482483797 -37.38967242450315 A250,102.54566184801614 0 0 1 250 0 "/>
            <path class="segmentFrontStyle2" transform="matrix(0.30167670144054975,-0.9534102830408058,0.9534102830408058,0.30167670144054975,0,0)" d="M-8.880480935969848 -11.547712761191368 A250,11.555005155895664 0 0 1 159.94236320500426 -8.880794247560516 "/>
            <path class="segmentFrontStyle2" transform="matrix(-0.829647355185851,0.5582877985708827,-0.5582877985708827,-0.829647355185851,0,0)" d="M-51.062020426755915 230.17744847932744 A250,235.13427662701878 0 0 0 125.09381035983891 203.58129052550217 "/>
            <path class="segmentFrontStyle2" transform="matrix(-0.45478355178654184,0.8906019992254777,-0.8906019992254777,-0.45478355178654184,0,0)" d="M113.84469582376457 135.73690363774793 A250,152.46236080214186 0 0 0 233.2377920745587 54.88689828953323 "/>
            <path class="segmentFrontStyle2" transform="matrix(0.9852386901332314,0.17118622451749588,-0.17118622451749588,0.9852386901332314,0,0)" d="M-121.38169233549289 206.58877999889634 A250,236.3116315677379 0 0 0 55.23106163392836 230.47260051076975 "/>
            <path class="segmentFrontStyle2" transform="matrix(0.7238937464236789,-0.6899114754000621,0.6899114754000621,0.7238937464236789,0,0)" d="M-250 0 A250,83.84927076559615 0 0 0 -238.25950979472032 25.393803339403195 "/>
            <path class="segmentFrontStyle2" transform="matrix(0.9485263083723283,0.31669834594699525,-0.31669834594699525,0.9485263083723283,0,0)" d="M-250 0 A250,80.76691551397104 0 0 1 -237.62110037521492 -25.100117506583672 "/>
            <path class="segmentFrontStyle2" transform="matrix(-0.782917261451689,-0.6221258407436453,0.6221258407436453,-0.782917261451689,0,0)" d="M110.507119011751 -138.46768007044597 A250,154.3673611130477 0 0 1 231.86731304253024 -57.71786885193811 "/>
            <path class="segmentFrontStyle2" transform="matrix(0.15053967344999328,-0.9886039685928685,0.9886039685928685,0.15053967344999328,0,0)" d="M-231.5774886906632 50.39798098270843 A250,133.7659697197216 0 0 0 -109.81394407184291 120.1702700419311 "/>
            <path class="segmentFrontStyle2" transform="matrix(-0.21311549025394116,-0.9770270148843492,0.9770270148843492,-0.21311549025394116,0,0)" d="M-250 0 A250,102.54566184801634 0 0 1 -234.28027074634534 -35.78888786239029 "/>
            <path class="segmentFrontStyle2" transform="matrix(-0.9762908721012492,0.21646277521038634,-0.21646277521038634,-0.9762908721012492,0,0)" d="M14.442842430509518 -1.9018186550201017 A250,1.905000310906083 0 0 1 177.15336577139897 -1.3441622796460768 "/>
            <path class="segmentFrontStyle2" transform="matrix(0.6758885593901122,0.7370038366830656,-0.7370038366830656,0.6758885593901122,0,0)" d="M-5.579525583044141 13.456652850440866 A250,13.46000546680219 0 0 0 162.4664205269995 10.230264694000425 "/>
         </g>
      </g>
   </g>
</svg>